<?xml version="1.0" encoding="UTF-8" standalone="no"?>
<!DOCTYPE svg PUBLIC "-//W3C//DTD SVG 1.1//EN" "http://www.w3.org/Graphics/SVG/1.1/DTD/svg11.dtd">
<svg width="100%" height="100%" viewBox="0 0 95 95" version="1.1" xmlns="http://www.w3.org/2000/svg" xmlns:xlink="http://www.w3.org/1999/xlink" xml:space="preserve" xmlns:serif="http://www.serif.com/" style="fill-rule:evenodd;clip-rule:evenodd;stroke-linejoin:round;stroke-miterlimit:2;">
    <g transform="matrix(1,0,0,1,-848.976,-1786.49)">
        <g transform="matrix(1,0,0,1,-97.571,16.7599)">
            <g transform="matrix(0.70925,0,0,0.70925,-483.535,417.911)">
                <path d="M2083,1905.99C2119.79,1905.99 2149.66,1935.86 2149.66,1972.65C2149.66,2009.45 2119.79,2039.32 2083,2039.32C2046.2,2039.32 2016.33,2009.45 2016.33,1972.65C2016.33,1935.86 2046.2,1905.99 2083,1905.99ZM2077.21,2006.25C2057.68,2006.25 2046.19,1990.59 2046.19,1971.1C2046.19,1950.86 2058.83,1934.43 2082.95,1934.43C2107.84,1934.43 2116.26,1951.24 2116.65,1960.79L2098.65,1960.79C2098.27,1955.44 2093.67,1947.42 2082.57,1947.42C2070.7,1947.42 2063.04,1957.73 2063.04,1970.34C2063.04,1982.95 2070.7,1993.26 2082.57,1993.26C2093.29,1993.26 2097.89,1984.86 2099.8,1976.45L2082.57,1976.45L2082.57,1969.58L2118.73,1969.58L2118.73,2004.72L2102.86,2004.72L2102.86,1982.57C2101.72,1990.59 2096.74,2006.25 2077.21,2006.25Z" style="fill:rgb(34,35,35);"/>
            </g>
        </g>
    </g>
</svg>
