<?xml version="1.0" encoding="UTF-8" standalone="no"?><!DOCTYPE svg PUBLIC "-//W3C//DTD SVG 1.1//EN" "http://www.w3.org/Graphics/SVG/1.1/DTD/svg11.dtd"><svg width="100%" height="100%" viewBox="0 0 277 164" version="1.1" xmlns="http://www.w3.org/2000/svg" xmlns:xlink="http://www.w3.org/1999/xlink" xml:space="preserve" xmlns:serif="http://www.serif.com/" style="fill-rule:evenodd;clip-rule:evenodd;stroke-linejoin:round;stroke-miterlimit:2;"><path d="M230.649,44.268l1.182,-1.952l35.131,60.846l-2.309,-0l-34.004,-58.894Zm-2.522,4.165l-8.242,-14.275l4.926,0l5.837,10.11l-2.522,4.165Zm-7.407,12.234l-15.305,-26.509l4.926,-0l12.9,22.344l-2.522,4.165Zm-1.182,1.952l1.182,-1.952l24.536,42.495l-2.309,0l-23.409,-40.543Zm-2.522,4.165l-18.836,-32.626l4.926,-0l16.432,28.461l-2.522,4.165Zm9.929,-16.398l1.182,-1.952l31.599,54.729l-2.309,-0l-30.472,-52.777Zm-3.704,6.117l1.182,-1.952l28.068,48.612l-2.309,-0l-26.94,-46.66Zm1.182,-1.952l-11.773,-20.392l4.926,0l9.369,16.227l-2.522,4.165Zm-125.027,-1.62l-27.468,45.366c-0.784,1.294 -2.049,2.535 -3.518,3.45c-1.469,0.915 -3.022,1.429 -4.316,1.429l-59.914,0c-1.294,0 -2.224,-0.514 -2.585,-1.429c-0.361,-0.915 -0.124,-2.156 0.66,-3.45l56.561,-93.416c0.784,-1.294 2.049,-2.535 3.518,-3.45c1.469,-0.915 3.022,-1.429 4.316,-1.429l2.187,-0l30.559,52.929Zm132.434,-10.614l-4.71,-8.158l4.77,-0l0.156,-0l1.594,-0.001c0.45,0.007 0.864,0.25 1.089,0.64l0.051,0.088l0.733,1.269l38.684,67.007l-2.309,0l-37.539,-65.017c-0.27,0.454 -0.492,0.825 -0.533,0.893l-1.985,3.278Zm-18.519,30.585l-22.368,-38.743l4.926,0l19.964,34.578l-2.522,4.165Zm-1.182,1.952l1.182,-1.952l17.473,30.261l-2.309,0l-16.345,-28.309Zm3.704,-6.117l1.182,-1.952l21.004,36.378l-2.309,0l-19.877,-34.426Zm-6.225,10.281l-25.9,-44.86l4.926,-0l23.495,40.695l-2.522,4.165Zm-110.212,-26.088l1.182,-1.952l27.502,47.635c0.057,-0.105 0.117,-0.211 0.181,-0.316l2.335,-3.857l-27.497,-47.627l1.182,-1.952l27.497,47.627l2.522,-4.165l-27.497,-47.627l1.182,-1.952l27.497,47.627l2.522,-4.165l-27.497,-47.627l1.182,-1.952l27.497,47.627l2.522,-4.165l-27.497,-47.627l1.182,-1.952l27.497,47.627l2.522,-4.165l-27.497,-47.627l1.182,-1.952l27.497,47.627l2.522,-4.165l-27.497,-47.627l1.182,-1.952l27.497,47.627l2.522,-4.165l-27.497,-47.627l1.182,-1.952l27.497,47.627l2.522,-4.165l-27.501,-47.633c-0.27,0.454 -0.492,0.825 -0.533,0.893l-1.985,3.278l-4.71,-8.158l4.77,-0l0.156,-0l1.594,-0.001c0.45,0.007 0.864,0.25 1.089,0.64l0.051,0.088l0.733,1.269l27.52,47.669l6.436,-10.629c0.784,-1.294 2.049,-2.535 3.518,-3.45c1.469,-0.915 3.022,-1.429 4.316,-1.429l2.187,-0l30.559,52.929l-6.787,11.209c-0.784,1.294 -2.049,2.535 -3.518,3.45c-1.469,0.915 -3.022,1.429 -4.316,1.429l-59.914,0c-1.218,0 -2.113,-0.455 -2.515,-1.272l-28.275,-48.975Zm1.182,-1.952l-29.431,-50.977l4.926,0l27.027,46.812l-2.522,4.165Zm3.704,-6.117l-25.9,-44.86l4.926,-0l23.495,40.695l-2.522,4.165Zm3.704,-6.117l-22.368,-38.743l4.926,0l19.964,34.578l-2.522,4.165Zm3.704,-6.117l-18.836,-32.626l4.926,-0l16.432,28.461l-2.522,4.165Zm3.704,-6.117l-15.305,-26.509l4.926,-0l12.9,22.344l-2.522,4.165Zm3.704,-6.117l-11.773,-20.392l4.926,0l9.369,16.227l-2.522,4.165Zm3.704,-6.117l-8.242,-14.275l4.926,0l5.837,10.11l-2.522,4.165Zm85.625,66.694l1.182,-1.952l13.941,24.144l-2.309,0l-12.814,-22.192Zm-2.522,4.165l-29.431,-50.977l4.926,0l27.027,46.812l-2.522,4.165Zm-1.182,1.952l1.182,-1.952l10.409,18.027l-2.301,0.014l-9.29,-16.089Z" style="fill:#f0f6f0;"/><g><path d="M0.141,137.779l0,-16.257l5.307,0l3.308,10.637l0.134,0l3.278,-10.637l5.3,0l0,16.257l-3.367,0l0,-6.422l0.052,-6.199l-0.156,0l-3.731,12.622l-2.892,0l-3.717,-12.622l-0.178,0l0.06,6.236l0,6.386l-3.397,0Z" style="fill:#f0f6f0;fill-rule:nonzero;"/><rect x="28.776" y="121.522" width="3.476" height="16.257" style="fill:#f0f6f0;fill-rule:nonzero;"/><path d="M43.561,137.779l0,-16.257l3.476,0l0,7.697l6.505,-7.697l4.148,0l-6.002,6.748l6.085,9.509l-4.106,0l-4.358,-6.996l-2.271,2.504l0,4.492l-3.476,0Z" style="fill:#f0f6f0;fill-rule:nonzero;"/><path d="M67.623,137.779l0,-16.257l11.825,0l0,2.969l-9.089,0l0.739,-0.739l0,5.116l-0.739,-0.739l7.987,0l0,2.781l-7.987,0l0.739,-0.739l0,5.371l-0.739,-0.739l9.137,0l0,2.975l-11.873,0Z" style="fill:#f0f6f0;fill-rule:nonzero;"/><path d="M108.4,137.989c-1.467,0 -2.699,-0.223 -3.695,-0.669c-0.996,-0.446 -1.748,-1.071 -2.257,-1.875c-0.509,-0.804 -0.767,-1.73 -0.776,-2.78l3.542,0c0.009,0.535 0.13,1.002 0.363,1.4c0.234,0.398 0.591,0.707 1.072,0.925c0.481,0.219 1.108,0.328 1.881,0.328c0.896,0 1.611,-0.161 2.145,-0.484c0.534,-0.323 0.801,-0.803 0.801,-1.44c0,-0.391 -0.061,-0.714 -0.183,-0.97c-0.122,-0.256 -0.326,-0.468 -0.613,-0.636c-0.287,-0.168 -0.674,-0.31 -1.163,-0.425c-0.488,-0.116 -1.099,-0.234 -1.832,-0.355c-0.932,-0.146 -1.753,-0.345 -2.462,-0.595c-0.709,-0.251 -1.301,-0.563 -1.775,-0.937c-0.474,-0.374 -0.829,-0.824 -1.067,-1.351c-0.238,-0.527 -0.357,-1.143 -0.357,-1.848c0,-1.024 0.255,-1.906 0.766,-2.647c0.511,-0.741 1.24,-1.31 2.189,-1.708c0.948,-0.397 2.08,-0.596 3.395,-0.596c1.279,0 2.38,0.201 3.305,0.604c0.925,0.402 1.642,0.965 2.15,1.689c0.509,0.723 0.765,1.569 0.769,2.537l-3.504,0c-0.019,-0.525 -0.157,-0.949 -0.414,-1.274c-0.257,-0.325 -0.595,-0.562 -1.013,-0.71c-0.418,-0.149 -0.885,-0.223 -1.399,-0.223c-0.548,0 -1.02,0.076 -1.416,0.229c-0.396,0.153 -0.7,0.368 -0.911,0.647c-0.211,0.278 -0.317,0.609 -0.317,0.991c0,0.493 0.13,0.867 0.39,1.123c0.26,0.256 0.68,0.454 1.258,0.595c0.579,0.141 1.336,0.292 2.27,0.451c0.688,0.102 1.36,0.244 2.015,0.427c0.655,0.183 1.25,0.449 1.784,0.8c0.534,0.35 0.96,0.832 1.276,1.446c0.316,0.614 0.475,1.41 0.475,2.389c0,0.968 -0.251,1.827 -0.752,2.574c-0.501,0.748 -1.246,1.329 -2.235,1.744c-0.989,0.415 -2.224,0.623 -3.707,0.623Z" style="fill:#f0f6f0;fill-rule:nonzero;"/><path d="M128.276,137.779l0,-13.256l-4.795,0l0,-3.001l13.16,0l0,3.001l-4.89,0l0,13.256l-3.475,0Z" style="fill:#f0f6f0;fill-rule:nonzero;"/><rect x="146.387" y="121.522" width="3.476" height="16.257" style="fill:#f0f6f0;fill-rule:nonzero;"/><path d="M161.171,137.779l0,-16.257l5.307,0l3.308,10.637l0.134,0l3.278,-10.637l5.3,0l0,16.257l-3.367,0l0,-6.422l0.052,-6.199l-0.156,0l-3.731,12.622l-2.892,0l-3.717,-12.622l-0.178,0l0.06,6.236l0,6.386l-3.397,0Z" style="fill:#f0f6f0;fill-rule:nonzero;"/><path d="M189.805,137.779l0,-16.257l6.973,0c0.875,0 1.672,0.118 2.391,0.355c0.719,0.237 1.332,0.583 1.84,1.038c0.508,0.456 0.898,1.014 1.172,1.674c0.274,0.66 0.411,1.416 0.411,2.268c0,1.07 -0.229,2.011 -0.688,2.821c-0.459,0.81 -1.121,1.44 -1.986,1.889c-0.865,0.449 -1.914,0.674 -3.146,0.674l-3.804,-0.007l0,-2.698l3.218,0.007c0.518,0 0.993,-0.077 1.424,-0.231c0.431,-0.154 0.78,-0.418 1.046,-0.793c0.267,-0.375 0.4,-0.886 0.4,-1.534c0,-0.646 -0.134,-1.151 -0.403,-1.516c-0.269,-0.365 -0.618,-0.624 -1.047,-0.776c-0.429,-0.152 -0.902,-0.228 -1.421,-0.228l-3.345,0l0.44,-0.459l0,13.772l-3.476,0Z" style="fill:#f0f6f0;fill-rule:nonzero;"/><path d="M218.384,137.989c-1.467,0 -2.699,-0.223 -3.695,-0.669c-0.996,-0.446 -1.748,-1.071 -2.257,-1.875c-0.509,-0.804 -0.767,-1.73 -0.776,-2.78l3.542,0c0.009,0.535 0.13,1.002 0.363,1.4c0.234,0.398 0.591,0.707 1.072,0.925c0.481,0.219 1.108,0.328 1.881,0.328c0.896,0 1.611,-0.161 2.145,-0.484c0.534,-0.323 0.801,-0.803 0.801,-1.44c0,-0.391 -0.061,-0.714 -0.183,-0.97c-0.122,-0.256 -0.326,-0.468 -0.613,-0.636c-0.287,-0.168 -0.674,-0.31 -1.163,-0.425c-0.488,-0.116 -1.099,-0.234 -1.832,-0.355c-0.932,-0.146 -1.753,-0.345 -2.462,-0.595c-0.709,-0.251 -1.301,-0.563 -1.775,-0.937c-0.474,-0.374 -0.829,-0.824 -1.067,-1.351c-0.238,-0.527 -0.357,-1.143 -0.357,-1.848c0,-1.024 0.255,-1.906 0.766,-2.647c0.511,-0.741 1.24,-1.31 2.189,-1.708c0.948,-0.397 2.08,-0.596 3.395,-0.596c1.279,0 2.38,0.201 3.305,0.604c0.925,0.402 1.642,0.965 2.15,1.689c0.509,0.723 0.765,1.569 0.769,2.537l-3.504,0c-0.019,-0.525 -0.157,-0.949 -0.414,-1.274c-0.257,-0.325 -0.595,-0.562 -1.013,-0.71c-0.418,-0.149 -0.885,-0.223 -1.399,-0.223c-0.548,0 -1.02,0.076 -1.416,0.229c-0.396,0.153 -0.7,0.368 -0.911,0.647c-0.211,0.278 -0.317,0.609 -0.317,0.991c0,0.493 0.13,0.867 0.39,1.123c0.26,0.256 0.68,0.454 1.258,0.595c0.579,0.141 1.336,0.292 2.27,0.451c0.688,0.102 1.36,0.244 2.015,0.427c0.655,0.183 1.25,0.449 1.784,0.8c0.534,0.35 0.96,0.832 1.276,1.446c0.316,0.614 0.475,1.41 0.475,2.389c0,0.968 -0.251,1.827 -0.752,2.574c-0.501,0.748 -1.246,1.329 -2.235,1.744c-0.989,0.415 -2.224,0.623 -3.707,0.623Z" style="fill:#f0f6f0;fill-rule:nonzero;"/><path d="M242.73,137.989c-1.228,0 -2.34,-0.186 -3.336,-0.559c-0.996,-0.373 -1.856,-0.917 -2.579,-1.631c-0.723,-0.715 -1.277,-1.589 -1.663,-2.623c-0.385,-1.034 -0.578,-2.211 -0.578,-3.53c0,-1.323 0.194,-2.499 0.581,-3.528c0.388,-1.029 0.942,-1.9 1.663,-2.612c0.721,-0.713 1.58,-1.255 2.576,-1.628c0.996,-0.373 2.108,-0.559 3.336,-0.559c1.232,0 2.347,0.186 3.346,0.559c0.999,0.373 1.861,0.916 2.584,1.631c0.723,0.715 1.278,1.585 1.663,2.612c0.385,1.027 0.578,2.202 0.578,3.525c0,1.323 -0.194,2.502 -0.582,3.536c-0.387,1.034 -0.943,1.908 -1.666,2.62c-0.723,0.712 -1.584,1.255 -2.584,1.628c-0.999,0.373 -2.112,0.559 -3.34,0.559Zm0,-2.969c0.939,0 1.752,-0.202 2.44,-0.605c0.688,-0.403 1.221,-1.002 1.598,-1.795c0.377,-0.793 0.566,-1.785 0.566,-2.974c0,-0.896 -0.109,-1.677 -0.328,-2.341c-0.219,-0.665 -0.528,-1.222 -0.929,-1.671c-0.4,-0.449 -0.883,-0.786 -1.45,-1.01c-0.566,-0.224 -1.198,-0.336 -1.897,-0.336c-0.928,0 -1.735,0.198 -2.421,0.594c-0.686,0.396 -1.217,0.991 -1.594,1.784c-0.377,0.793 -0.565,1.787 -0.565,2.98c0,0.892 0.109,1.677 0.328,2.354c0.219,0.677 0.527,1.238 0.925,1.682c0.398,0.444 0.878,0.778 1.438,1.002c0.561,0.224 1.191,0.336 1.889,0.336Z" style="fill:#f0f6f0;fill-rule:nonzero;"/><path d="M261.255,137.779l0,-16.257l4.157,0l6.846,11.491l0.159,0l-0.137,-5.192l0,-6.298l3.348,0l0,16.257l-3.934,0l-6.84,-11.236l-0.159,0l0.099,4.699l0,6.537l-3.539,0Z" style="fill:#f0f6f0;fill-rule:nonzero;"/><path d="M0,162.485l0,-10.44l4.217,0c1.004,0 1.858,0.217 2.561,0.651c0.704,0.434 1.241,1.042 1.61,1.825c0.37,0.783 0.555,1.7 0.555,2.752c0,0.779 -0.105,1.489 -0.315,2.132c-0.21,0.642 -0.517,1.192 -0.922,1.65c-0.404,0.458 -0.899,0.81 -1.483,1.059c-0.584,0.248 -1.253,0.372 -2.006,0.372l-4.217,0Zm1.557,-1.352l2.437,0c0.503,0 0.961,-0.078 1.372,-0.234c0.411,-0.156 0.765,-0.395 1.06,-0.716c0.295,-0.321 0.523,-0.727 0.681,-1.216c0.159,-0.49 0.238,-1.065 0.238,-1.727c0,-0.885 -0.14,-1.611 -0.42,-2.177c-0.28,-0.566 -0.671,-0.987 -1.173,-1.261c-0.502,-0.275 -1.088,-0.412 -1.757,-0.412l-2.437,0l0,7.744Z" style="fill:#f0f6f0;fill-rule:nonzero;"/><path d="M15.782,162.485l0,-10.44l7.312,0l0,1.35l-6.103,0l0.348,-0.348l0,3.822l-0.348,-0.348l5.403,0l0,1.266l-5.403,0l0.348,-0.348l0,4.034l-0.348,-0.348l6.121,0l0,1.359l-7.33,0Z" style="fill:#f0f6f0;fill-rule:nonzero;"/><path d="M33.485,162.612c-0.921,0 -1.687,-0.143 -2.298,-0.43c-0.611,-0.286 -1.069,-0.686 -1.374,-1.198c-0.305,-0.512 -0.463,-1.098 -0.473,-1.759l1.6,0c0.011,0.439 0.109,0.821 0.294,1.147c0.186,0.325 0.466,0.576 0.84,0.752c0.374,0.176 0.858,0.264 1.45,0.264c0.731,0 1.318,-0.136 1.761,-0.407c0.443,-0.271 0.664,-0.683 0.664,-1.234c0,-0.311 -0.047,-0.571 -0.142,-0.781c-0.095,-0.209 -0.25,-0.384 -0.465,-0.523c-0.215,-0.139 -0.498,-0.257 -0.849,-0.353c-0.351,-0.096 -0.782,-0.189 -1.293,-0.277c-0.596,-0.102 -1.121,-0.228 -1.574,-0.378c-0.453,-0.15 -0.831,-0.336 -1.133,-0.559c-0.303,-0.222 -0.53,-0.495 -0.683,-0.819c-0.153,-0.323 -0.229,-0.709 -0.229,-1.156c0,-0.608 0.154,-1.136 0.461,-1.582c0.308,-0.446 0.748,-0.79 1.322,-1.033c0.574,-0.243 1.261,-0.364 2.061,-0.364c0.802,0 1.484,0.127 2.047,0.382c0.563,0.254 0.996,0.61 1.301,1.066c0.305,0.456 0.46,0.991 0.466,1.605l-1.58,0c-0.015,-0.416 -0.121,-0.761 -0.317,-1.035c-0.196,-0.274 -0.463,-0.478 -0.8,-0.612c-0.337,-0.134 -0.73,-0.2 -1.18,-0.2c-0.456,0 -0.845,0.065 -1.167,0.194c-0.323,0.129 -0.569,0.311 -0.741,0.544c-0.171,0.233 -0.257,0.509 -0.257,0.828c0,0.385 0.093,0.682 0.279,0.891c0.186,0.209 0.486,0.374 0.9,0.493c0.414,0.119 0.954,0.238 1.619,0.357c0.464,0.074 0.909,0.17 1.335,0.29c0.426,0.12 0.808,0.291 1.146,0.512c0.338,0.221 0.605,0.52 0.801,0.898c0.196,0.378 0.295,0.866 0.295,1.465c0,0.595 -0.155,1.119 -0.465,1.573c-0.31,0.454 -0.767,0.807 -1.374,1.059c-0.606,0.252 -1.355,0.377 -2.247,0.377Z" style="fill:#f0f6f0;fill-rule:nonzero;"/><rect x="44.482" y="152.045" width="1.557" height="10.44" style="fill:#f0f6f0;fill-rule:nonzero;"/><path d="M57.995,162.612c-0.787,0 -1.495,-0.128 -2.126,-0.383c-0.63,-0.255 -1.167,-0.619 -1.611,-1.092c-0.444,-0.473 -0.783,-1.037 -1.017,-1.693c-0.234,-0.656 -0.351,-1.382 -0.351,-2.179c0,-0.831 0.124,-1.574 0.371,-2.229c0.247,-0.655 0.599,-1.215 1.056,-1.68c0.456,-0.464 1.002,-0.819 1.636,-1.064c0.634,-0.245 1.336,-0.367 2.105,-0.367c0.885,0 1.667,0.148 2.346,0.445c0.679,0.297 1.227,0.712 1.646,1.247c0.419,0.535 0.672,1.163 0.761,1.886l-1.602,0c-0.09,-0.476 -0.282,-0.878 -0.577,-1.206c-0.295,-0.328 -0.662,-0.579 -1.101,-0.753c-0.439,-0.174 -0.93,-0.261 -1.473,-0.261c-0.717,0 -1.345,0.155 -1.883,0.465c-0.538,0.31 -0.954,0.761 -1.248,1.352c-0.294,0.591 -0.441,1.31 -0.441,2.155c0,0.636 0.082,1.203 0.247,1.703c0.165,0.5 0.402,0.922 0.712,1.267c0.31,0.345 0.681,0.608 1.115,0.788c0.434,0.18 0.92,0.27 1.459,0.27c0.69,0 1.292,-0.131 1.806,-0.393c0.514,-0.262 0.913,-0.641 1.196,-1.139c0.283,-0.497 0.424,-1.09 0.424,-1.779l0,-0.348l0.51,0.579l-3.838,0l0,-1.16l4.916,0l0,0.753c0,0.737 -0.12,1.401 -0.36,1.995c-0.24,0.593 -0.581,1.099 -1.023,1.516c-0.442,0.417 -0.972,0.739 -1.59,0.964c-0.618,0.225 -1.307,0.337 -2.066,0.337Z" style="fill:#f0f6f0;fill-rule:nonzero;"/><path d="M69.888,162.485l0,-10.44l1.917,0l5.399,8.358l0.09,0l-0.076,-3.49l0,-4.867l1.508,0l0,10.44l-1.831,0l-5.391,-8.259l-0.09,0l0.055,3.243l0,5.016l-1.582,0Z" style="fill:#f0f6f0;fill-rule:nonzero;"/><path d="M93.655,163.651l4.438,-11.606l1.418,0l-4.425,11.606l-1.43,0Z" style="fill:#f0f6f0;fill-rule:nonzero;"/><path d="M114.742,162.485l0,-10.44l4.217,0c0.551,0 1.052,0.073 1.503,0.22c0.451,0.147 0.835,0.362 1.153,0.646c0.318,0.284 0.562,0.631 0.732,1.04c0.171,0.409 0.256,0.879 0.256,1.41c0,0.668 -0.147,1.253 -0.44,1.754c-0.293,0.501 -0.712,0.89 -1.255,1.166c-0.543,0.276 -1.196,0.414 -1.957,0.414l-2.823,-0.008l0,-1.246l2.586,0.008c0.455,0 0.855,-0.073 1.199,-0.218c0.344,-0.145 0.613,-0.37 0.807,-0.675c0.194,-0.305 0.292,-0.687 0.292,-1.147c0,-0.466 -0.099,-0.848 -0.296,-1.146c-0.197,-0.297 -0.466,-0.517 -0.807,-0.66c-0.341,-0.143 -0.739,-0.214 -1.195,-0.214l-2.664,0l0.25,-0.245l0,9.339l-1.557,0Z" style="fill:#f0f6f0;fill-rule:nonzero;"/><path d="M129.264,162.485l0,-10.44l1.557,0l0,4.697l-0.225,-0.225l6.297,0l-0.225,0.225l0,-4.697l1.557,0l0,10.44l-1.557,0l0,-4.843l0.225,0.225l-6.297,0l0.225,-0.225l0,4.843l-1.557,0Z" style="fill:#f0f6f0;fill-rule:nonzero;"/><path d="M150.224,162.612c-0.775,0 -1.477,-0.122 -2.107,-0.367c-0.63,-0.245 -1.173,-0.599 -1.63,-1.064c-0.456,-0.465 -0.805,-1.027 -1.047,-1.687c-0.242,-0.66 -0.363,-1.403 -0.363,-2.228c0,-0.831 0.122,-1.575 0.367,-2.233c0.245,-0.658 0.594,-1.218 1.047,-1.68c0.454,-0.462 0.995,-0.815 1.625,-1.06c0.63,-0.245 1.333,-0.367 2.107,-0.367c0.78,0 1.485,0.122 2.114,0.367c0.63,0.245 1.172,0.599 1.629,1.064c0.456,0.464 0.805,1.024 1.047,1.68c0.242,0.655 0.363,1.398 0.363,2.229c0,0.831 -0.122,1.576 -0.367,2.236c-0.245,0.66 -0.595,1.221 -1.052,1.683c-0.456,0.462 -0.999,0.815 -1.629,1.06c-0.629,0.245 -1.331,0.367 -2.106,0.367Zm0,-1.35c0.728,0 1.358,-0.159 1.888,-0.477c0.531,-0.318 0.94,-0.774 1.229,-1.368c0.289,-0.594 0.433,-1.311 0.433,-2.151c0,-0.636 -0.083,-1.199 -0.25,-1.69c-0.166,-0.491 -0.404,-0.908 -0.713,-1.251c-0.309,-0.343 -0.681,-0.604 -1.117,-0.782c-0.436,-0.178 -0.926,-0.267 -1.47,-0.267c-0.724,0 -1.35,0.157 -1.878,0.47c-0.528,0.313 -0.936,0.766 -1.224,1.361c-0.289,0.594 -0.433,1.314 -0.433,2.159c0,0.63 0.083,1.194 0.25,1.692c0.166,0.498 0.403,0.917 0.709,1.258c0.306,0.341 0.676,0.6 1.11,0.778c0.434,0.178 0.923,0.267 1.467,0.267Z" style="fill:#f0f6f0;fill-rule:nonzero;"/><path d="M163.903,162.485l0,-9.078l-3.28,0l0,-1.363l8.153,0l0,1.363l-3.316,0l0,9.078l-1.557,0Z" style="fill:#f0f6f0;fill-rule:nonzero;"/><path d="M179.181,162.612c-0.775,0 -1.477,-0.122 -2.107,-0.367c-0.63,-0.245 -1.173,-0.599 -1.63,-1.064c-0.456,-0.465 -0.805,-1.027 -1.047,-1.687c-0.242,-0.66 -0.363,-1.403 -0.363,-2.228c0,-0.831 0.122,-1.575 0.367,-2.233c0.245,-0.658 0.594,-1.218 1.047,-1.68c0.454,-0.462 0.995,-0.815 1.625,-1.06c0.63,-0.245 1.333,-0.367 2.107,-0.367c0.78,0 1.485,0.122 2.114,0.367c0.63,0.245 1.172,0.599 1.629,1.064c0.456,0.464 0.805,1.024 1.047,1.68c0.242,0.655 0.363,1.398 0.363,2.229c0,0.831 -0.122,1.576 -0.367,2.236c-0.245,0.66 -0.595,1.221 -1.052,1.683c-0.456,0.462 -0.999,0.815 -1.629,1.06c-0.629,0.245 -1.331,0.367 -2.106,0.367Zm0,-1.35c0.728,0 1.358,-0.159 1.888,-0.477c0.531,-0.318 0.94,-0.774 1.229,-1.368c0.289,-0.594 0.433,-1.311 0.433,-2.151c0,-0.636 -0.083,-1.199 -0.25,-1.69c-0.166,-0.491 -0.404,-0.908 -0.713,-1.251c-0.309,-0.343 -0.681,-0.604 -1.117,-0.782c-0.436,-0.178 -0.926,-0.267 -1.47,-0.267c-0.724,0 -1.35,0.157 -1.878,0.47c-0.528,0.313 -0.936,0.766 -1.224,1.361c-0.289,0.594 -0.433,1.314 -0.433,2.159c0,0.63 0.083,1.194 0.25,1.692c0.166,0.498 0.403,0.917 0.709,1.258c0.306,0.341 0.676,0.6 1.11,0.778c0.434,0.178 0.923,0.267 1.467,0.267Z" style="fill:#f0f6f0;fill-rule:nonzero;"/><path d="M195.808,162.612c-0.787,0 -1.495,-0.128 -2.126,-0.383c-0.63,-0.255 -1.167,-0.619 -1.611,-1.092c-0.444,-0.473 -0.783,-1.037 -1.017,-1.693c-0.234,-0.656 -0.351,-1.382 -0.351,-2.179c0,-0.831 0.124,-1.574 0.371,-2.229c0.247,-0.655 0.599,-1.215 1.056,-1.68c0.456,-0.464 1.002,-0.819 1.636,-1.064c0.634,-0.245 1.336,-0.367 2.105,-0.367c0.885,0 1.667,0.148 2.346,0.445c0.679,0.297 1.227,0.712 1.646,1.247c0.419,0.535 0.672,1.163 0.761,1.886l-1.602,0c-0.09,-0.476 -0.282,-0.878 -0.577,-1.206c-0.295,-0.328 -0.662,-0.579 -1.101,-0.753c-0.439,-0.174 -0.93,-0.261 -1.473,-0.261c-0.717,0 -1.345,0.155 -1.883,0.465c-0.538,0.31 -0.954,0.761 -1.248,1.352c-0.294,0.591 -0.441,1.31 -0.441,2.155c0,0.636 0.082,1.203 0.247,1.703c0.165,0.5 0.402,0.922 0.712,1.267c0.31,0.345 0.681,0.608 1.115,0.788c0.434,0.18 0.92,0.27 1.459,0.27c0.69,0 1.292,-0.131 1.806,-0.393c0.514,-0.262 0.913,-0.641 1.196,-1.139c0.283,-0.497 0.424,-1.09 0.424,-1.779l0,-0.348l0.51,0.579l-3.838,0l0,-1.16l4.916,0l0,0.753c0,0.737 -0.12,1.401 -0.36,1.995c-0.24,0.593 -0.581,1.099 -1.023,1.516c-0.442,0.417 -0.972,0.739 -1.59,0.964c-0.618,0.225 -1.307,0.337 -2.066,0.337Z" style="fill:#f0f6f0;fill-rule:nonzero;"/><path d="M207.701,162.485l0,-10.44l4.869,0c0.567,0 1.068,0.063 1.501,0.188c0.433,0.125 0.793,0.312 1.081,0.561c0.288,0.248 0.505,0.55 0.652,0.904c0.147,0.355 0.22,0.763 0.22,1.225c0,0.627 -0.159,1.165 -0.478,1.613c-0.318,0.448 -0.772,0.75 -1.362,0.907l0,0.1c0.567,0.1 0.976,0.319 1.226,0.658c0.25,0.339 0.374,0.805 0.374,1.399l0,1.747c0,0.179 0.007,0.363 0.021,0.553c0.014,0.19 0.064,0.385 0.148,0.584l-1.571,0c-0.063,-0.142 -0.106,-0.31 -0.129,-0.504c-0.023,-0.194 -0.035,-0.414 -0.035,-0.66l0,-1.448c0,-0.357 -0.052,-0.655 -0.156,-0.892c-0.104,-0.237 -0.289,-0.417 -0.557,-0.54c-0.267,-0.123 -0.649,-0.184 -1.144,-0.184l-3.106,0l0,4.229l-1.557,0Zm1.557,-5.491l3.095,0c0.746,0 1.278,-0.175 1.597,-0.524c0.318,-0.349 0.478,-0.797 0.478,-1.342c0,-0.423 -0.086,-0.763 -0.259,-1.021c-0.172,-0.258 -0.414,-0.447 -0.725,-0.568c-0.311,-0.121 -0.674,-0.181 -1.09,-0.181l-3.095,0l0,3.636Z" style="fill:#f0f6f0;fill-rule:nonzero;"/><path d="M221.804,162.485l3.709,-10.44l2.183,0l3.709,10.44l-1.623,0l-0.863,-2.435l-4.63,0l-0.855,2.435l-1.631,0Zm2.868,-3.65l3.865,0l-1.156,-3.218l-0.73,-2.136l-0.076,0l-0.738,2.136l-1.164,3.218Z" style="fill:#f0f6f0;fill-rule:nonzero;"/><path d="M237.718,162.485l0,-10.44l4.217,0c0.551,0 1.052,0.073 1.503,0.22c0.451,0.147 0.835,0.362 1.153,0.646c0.318,0.284 0.562,0.631 0.732,1.04c0.171,0.409 0.256,0.879 0.256,1.41c0,0.668 -0.147,1.253 -0.44,1.754c-0.293,0.501 -0.712,0.89 -1.255,1.166c-0.543,0.276 -1.196,0.414 -1.957,0.414l-2.823,-0.008l0,-1.246l2.586,0.008c0.455,0 0.855,-0.073 1.199,-0.218c0.344,-0.145 0.613,-0.37 0.807,-0.675c0.194,-0.305 0.292,-0.687 0.292,-1.147c0,-0.466 -0.099,-0.848 -0.296,-1.146c-0.197,-0.297 -0.466,-0.517 -0.807,-0.66c-0.341,-0.143 -0.739,-0.214 -1.195,-0.214l-2.664,0l0.25,-0.245l0,9.339l-1.557,0Z" style="fill:#f0f6f0;fill-rule:nonzero;"/><path d="M252.24,162.485l0,-10.44l1.557,0l0,4.697l-0.225,-0.225l6.297,0l-0.225,0.225l0,-4.697l1.557,0l0,10.44l-1.557,0l0,-4.843l0.225,0.225l-6.297,0l0.225,-0.225l0,4.843l-1.557,0Z" style="fill:#f0f6f0;fill-rule:nonzero;"/><path d="M271.394,162.485l0,-4.106l-3.867,-6.334l1.778,0l2.832,4.816l0.082,0l2.858,-4.816l1.764,0l-3.889,6.334l0,4.106l-1.557,0Z" style="fill:#f0f6f0;fill-rule:nonzero;"/></g></svg>