<?xml version="1.0" encoding="UTF-8" standalone="no"?>
<!-- Created with Inkscape (http://www.inkscape.org/) -->

<svg
   xmlns:dc="http://purl.org/dc/elements/1.1/"
   xmlns:cc="http://creativecommons.org/ns#"
   xmlns:rdf="http://www.w3.org/1999/02/22-rdf-syntax-ns#"
   xmlns:svg="http://www.w3.org/2000/svg"
   xmlns="http://www.w3.org/2000/svg"
   xmlns:sodipodi="http://sodipodi.sourceforge.net/DTD/sodipodi-0.dtd"
   xmlns:inkscape="http://www.inkscape.org/namespaces/inkscape"
   width="65.567245mm"
   height="67.343201mm"
   viewBox="0 0 232.32489 238.61764"
   id="svg2"
   version="1.1"
   inkscape:version="0.91 r13725"
   sodipodi:docname="SiP_logo_nofonts.svg"
   inkscape:export-filename="E:\Drawings\SiP\SiP_Logo.png"
   inkscape:export-xdpi="1199.9971"
   inkscape:export-ydpi="1199.9971">
  <sodipodi:namedview
     id="base"
     pagecolor="#ffffff"
     bordercolor="#666666"
     borderopacity="1.0"
     inkscape:pageopacity="0.0"
     inkscape:pageshadow="2"
     inkscape:zoom="2.8284271"
     inkscape:cx="126.24611"
     inkscape:cy="97.943143"
     inkscape:document-units="px"
     inkscape:current-layer="layer1"
     showgrid="false"
     inkscape:window-width="2560"
     inkscape:window-height="1377"
     inkscape:window-x="-8"
     inkscape:window-y="-8"
     inkscape:window-maximized="1"
     showguides="false"
     inkscape:snap-page="false"
     fit-margin-top="0"
     fit-margin-left="0"
     fit-margin-right="0"
     fit-margin-bottom="0" />
  <defs
     id="defs4">
    <inkscape:path-effect
       effect="spiro"
       id="path-effect39476"
       is_visible="true" />
    <clipPath
       clipPathUnits="userSpaceOnUse"
       id="clipPath39255">
      <rect
         ry="12.982479"
         y="683.29871"
         x="377.66339"
         height="106.89268"
         width="196.96037"
         id="rect39257"
         style="display:inline;fill:#ffcc00;fill-opacity:1;fill-rule:evenodd;stroke:none;stroke-width:5.78375292;stroke-linecap:butt;stroke-linejoin:miter;stroke-miterlimit:4;stroke-dasharray:none;stroke-opacity:1" />
    </clipPath>
  </defs>
  <metadata
     id="metadata7">
    <rdf:RDF>
      <cc:Work
         rdf:about="">
        <dc:format>image/svg+xml</dc:format>
        <dc:type
           rdf:resource="http://purl.org/dc/dcmitype/StillImage" />
        <dc:title></dc:title>
      </cc:Work>
    </rdf:RDF>
  </metadata>
  <g
     style="display:inline"
     inkscape:label="lock"
     id="layer2"
     inkscape:groupmode="layer"
     transform="translate(-259.00781,-371.6672)" />
  <g
     id="layer1"
     inkscape:groupmode="layer"
     inkscape:label="Layer 1"
     style="display:inline"
     transform="translate(-259.00781,-371.6672)">
    <path
       inkscape:connector-curvature="0"
       id="path8081"
       d=""
       style="fill:#000000" />
    <path
       inkscape:connector-curvature="0"
       id="path8079"
       d=""
       style="fill:#000000" />
    <text
       sodipodi:linespacing="125%"
       id="text8499"
       y="647.99518"
       x="-438.26248"
       style="font-style:normal;font-variant:normal;font-weight:normal;font-stretch:normal;font-size:60px;line-height:125%;font-family:'Arista 2.0';-inkscape-font-specification:'Arista 2.0, ';text-align:start;writing-mode:lr-tb;text-anchor:start;opacity:1;fill:#ff0000;fill-opacity:1;fill-rule:nonzero;stroke:none;stroke-width:4;stroke-linecap:round;stroke-linejoin:round;stroke-miterlimit:4;stroke-dasharray:none;stroke-opacity:1"
       xml:space="preserve"><tspan
         y="647.99518"
         x="-438.26248"
         id="tspan8501"
         sodipodi:role="line" /><tspan
         id="tspan8503"
         y="722.99518"
         x="-438.26248"
         sodipodi:role="line" /></text>
    <g
       id="g8151">
      <path
         style="fill:#d93824;fill-opacity:1;fill-rule:evenodd;stroke:none;stroke-width:1px;stroke-linecap:butt;stroke-linejoin:miter;stroke-opacity:1"
         d="m 375.33727,383.49875 c -44.07309,-1.00264 -85.44561,35.71122 -89.34743,79.6776 -4.87746,39.53093 20.1437,81.1341 57.92935,94.10569 35.75056,13.72601 80.05005,1.44648 102.63088,-29.75134 21.84718,-28.36564 24.72487,-70.34401 5.36385,-100.76188 -15.87306,-26.20621 -45.7643,-43.70912 -76.57665,-43.27007 z"
         id="path8743"
         inkscape:connector-curvature="0" />
      <path
         inkscape:connector-curvature="0"
         id="path8750"
         style="font-style:normal;font-variant:normal;font-weight:900;font-stretch:normal;font-size:medium;line-height:125%;font-family:'Helvetica Neue LT Pro';-inkscape-font-specification:'Helvetica Neue LT Pro Heavy';text-align:start;writing-mode:lr-tb;text-anchor:start;fill:#ffffff;fill-opacity:1;fill-rule:nonzero;stroke:none;stroke-width:15;stroke-linecap:round;stroke-linejoin:miter;stroke-miterlimit:11.19999981;stroke-dasharray:none;stroke-opacity:1"
         d="m 270.50781,494.94045 c 0,30.78922 31.59944,34.70539 42.4027,34.70539 21.60646,0 44.56335,-8.10243 44.56335,-33.21995 0,-17.82534 -13.50406,-23.90216 -27.14316,-27.81834 -13.504,-3.51105 -27.5482,-5.40162 -27.95332,-12.15364 0,-5.40161 6.61694,-6.48194 10.66817,-6.48194 3.10591,0 6.21188,0.67521 8.77764,2.43073 2.56576,1.62049 4.05123,4.05121 3.51102,7.6973 l 28.08842,0 c -0.67519,-23.36199 -19.31077,-31.46442 -40.24205,-31.46442 -19.85091,0 -38.89161,9.58788 -38.89161,31.86955 0,19.44583 17.42019,23.63208 32.67979,27.95338 16.60997,4.72641 20.79618,6.21185 20.79618,11.07331 0,7.15715 -7.42722,8.77763 -12.28867,8.77763 -5.53663,0 -12.01859,-1.21537 -14.17924,-7.0221 -0.67519,-1.89057 -1.0803,-4.05122 -1.0803,-6.3469 l -29.70892,0 z" />
      <path
         inkscape:connector-curvature="0"
         id="path8752"
         style="font-style:normal;font-variant:normal;font-weight:900;font-stretch:normal;font-size:medium;line-height:125%;font-family:'Helvetica Neue LT Pro';-inkscape-font-specification:'Helvetica Neue LT Pro Heavy';text-align:start;writing-mode:lr-tb;text-anchor:start;fill:#ffffff;fill-opacity:1;fill-rule:nonzero;stroke:none;stroke-width:15;stroke-linecap:round;stroke-linejoin:miter;stroke-miterlimit:11.19999981;stroke-dasharray:none;stroke-opacity:1"
         d="m 361.74232,527.35016 26.73805,0 0,-70.086 -26.73805,0 z"
         sodipodi:nodetypes="ccccc" />
      <path
         inkscape:connector-curvature="0"
         id="path8754"
         style="font-style:normal;font-variant:normal;font-weight:900;font-stretch:normal;font-size:medium;line-height:125%;font-family:'Helvetica Neue LT Pro';-inkscape-font-specification:'Helvetica Neue LT Pro Heavy';text-align:start;writing-mode:lr-tb;text-anchor:start;fill:#ffffff;fill-opacity:1;fill-rule:nonzero;stroke:none;stroke-width:15;stroke-linecap:round;stroke-linejoin:miter;stroke-miterlimit:11.19999981;stroke-dasharray:none;stroke-opacity:1"
         d="m 424.46609,455.64367 13.23399,0 c 7.29218,0 14.0442,0.54016 14.0442,9.31779 0,9.85796 -8.23749,10.26309 -15.79975,10.26309 l -11.47844,0 0,-19.58088 z m -29.70886,71.70649 29.70886,0 0,-29.16875 17.55529,0 c 22.1466,0 37.81132,-11.07331 37.81132,-34.30027 0,-13.63908 -9.04772,-32.94987 -35.38059,-32.94987 l -49.69488,0 0,96.41889 z" />
      <path
         id="path8785"
         d="m 389.65593,437.34683 a 14.544633,14.544633 0 0 1 -14.54463,14.54464 14.544633,14.544633 0 0 1 -14.54464,-14.54464 14.544633,14.544633 0 0 1 14.54464,-14.54463 14.544633,14.544633 0 0 1 14.54463,14.54463 z"
         style="fill:#ffffff;fill-rule:evenodd;stroke:none;stroke-width:1px;stroke-linecap:butt;stroke-linejoin:miter;stroke-opacity:1" />
      <g
         id="text34835"
         style="font-style:normal;font-variant:normal;font-weight:900;font-stretch:normal;font-size:36.23532486px;line-height:125%;font-family:'Helvetica Neue LT Pro';-inkscape-font-specification:'Helvetica Neue LT Pro Heavy';text-align:start;writing-mode:lr-tb;text-anchor:start;opacity:1;fill:#d93824;fill-opacity:1;fill-rule:nonzero;stroke:none;stroke-width:2;stroke-linecap:round;stroke-linejoin:miter;stroke-miterlimit:4;stroke-dasharray:none;stroke-opacity:1">
        <path
           id="path8122"
           style="font-style:oblique;font-variant:normal;font-weight:bold;font-stretch:normal;font-size:30px;font-family:'Helvetica Neue LT Pro';-inkscape-font-specification:'Helvetica Neue LT Pro Bold Oblique';fill:#d93824;fill-opacity:1;stroke:none"
           d="m 282.8063,591.6192 -0.18,0.87 c -0.84,3.96 0.63,6.24 5.52,6.24 4.68,0 7.86,-2.04 8.79,-6.57 0.57,-2.64 0.06,-4.23 -2.91,-5.67 l -3.03,-1.44 c -1.65,-0.75 -1.92,-1.59 -1.59,-2.91 0.24,-1.29 1.02,-2.49 2.97,-2.49 1.68,0 2.13,1.14 1.68,3.18 l 4.14,0 0.12,-0.6 c 0.81,-4.11 -1.56,-5.76 -5.43,-5.76 -4.11,0 -7.08,2.1 -7.95,6.3 -0.72,3.54 0.66,5.19 4.26,6.48 2.64,0.96 3.48,1.74 3.09,3.66 -0.39,1.8 -1.8,2.64 -3.12,2.64 -1.71,0 -2.34,-0.75 -2.34,-1.92 0,-0.42 0.06,-0.87 0.15,-1.38 l 0.15,-0.63 -4.32,0 z" />
        <path
           id="path8124"
           style="font-style:oblique;font-variant:normal;font-weight:bold;font-stretch:normal;font-size:30px;font-family:'Helvetica Neue LT Pro';-inkscape-font-specification:'Helvetica Neue LT Pro Bold Oblique';fill:#d93824;fill-opacity:1;stroke:none"
           d="m 301.96223,582.1692 -2.1,0 -0.57,2.82 2.1,0 -1.92,9.24 c -0.72,3.24 -0.3,4.26 2.94,4.26 0.96,0 1.83,-0.09 2.76,-0.18 l 0.57,-2.88 c -0.27,0.03 -0.6,0.06 -0.93,0.06 -1.2,0 -1.35,-0.48 -1.11,-1.77 l 1.83,-8.73 2.4,0 0.57,-2.82 -2.4,0 0.96,-4.62 -4.14,0 -0.96,4.62 z" />
        <path
           id="path8126"
           style="font-style:oblique;font-variant:normal;font-weight:bold;font-stretch:normal;font-size:30px;font-family:'Helvetica Neue LT Pro';-inkscape-font-specification:'Helvetica Neue LT Pro Bold Oblique';fill:#d93824;fill-opacity:1;stroke:none"
           d="m 314.91848,598.3092 3.96,0 3.33,-16.14 -4.14,0 -2.22,10.71 c -0.36,1.77 -1.26,2.67 -2.73,2.67 -1.23,0 -1.65,-0.6 -1.32,-2.25 l 2.31,-11.13 -4.14,0 -2.49,11.97 c -0.69,3.21 0.57,4.59 3.18,4.59 1.77,0 3.39,-0.72 4.59,-2.31 l 0.06,0 -0.39,1.89 z" />
        <path
           id="path8128"
           style="font-style:oblique;font-variant:normal;font-weight:bold;font-stretch:normal;font-size:30px;font-family:'Helvetica Neue LT Pro';-inkscape-font-specification:'Helvetica Neue LT Pro Bold Oblique';fill:#d93824;fill-opacity:1;stroke:none"
           d="m 335.49848,587.9892 c 0.75,-3.81 -0.69,-6.24 -4.5,-6.24 -3.81,0 -6.96,1.86 -8.31,8.49 -1.35,6.48 0.33,8.49 4.44,8.49 4.41,0 6.63,-2.37 7.5,-6.6 l -3.96,0 c -0.57,2.64 -1.38,3.78 -2.79,3.78 -1.86,0 -1.86,-1.65 -1.05,-5.64 0.81,-3.72 1.44,-5.52 3.51,-5.52 1.56,0 1.53,1.68 1.2,3.24 l 3.96,0 z" />
        <path
           id="path8130"
           style="font-style:oblique;font-variant:normal;font-weight:bold;font-stretch:normal;font-size:30px;font-family:'Helvetica Neue LT Pro';-inkscape-font-specification:'Helvetica Neue LT Pro Bold Oblique';fill:#d93824;fill-opacity:1;stroke:none"
           d="m 340.1152,576.8892 -4.44,21.42 4.14,0 0.96,-4.71 1.86,-1.92 2.1,6.63 4.56,0 -3.33,-9.78 5.97,-6.36 -4.56,0 -5.4,6.03 -0.06,0 2.34,-11.31 -4.14,0 z" />
        <path
           id="path8132"
           style="font-style:oblique;font-variant:normal;font-weight:bold;font-stretch:normal;font-size:30px;font-family:'Helvetica Neue LT Pro';-inkscape-font-specification:'Helvetica Neue LT Pro Bold Oblique';fill:#d93824;fill-opacity:1;stroke:none"
           d="m 361.63223,580.1892 4.14,0 0.75,-3.54 -4.14,0 -0.75,3.54 z m -3.75,18.12 4.14,0 3.33,-16.14 -4.14,0 -3.33,16.14 z" />
        <path
           id="path8134"
           style="font-style:oblique;font-variant:normal;font-weight:bold;font-stretch:normal;font-size:30px;font-family:'Helvetica Neue LT Pro';-inkscape-font-specification:'Helvetica Neue LT Pro Bold Oblique';fill:#d93824;fill-opacity:1;stroke:none"
           d="m 364.93927,598.3092 4.14,0 2.22,-10.71 c 0.36,-1.77 1.26,-2.67 2.73,-2.67 1.23,0 1.65,0.6 1.32,2.25 l -2.31,11.13 4.14,0 2.46,-11.97 c 0.69,-3.21 -0.54,-4.59 -3.15,-4.59 -1.77,0 -3.39,0.72 -4.59,2.31 l -0.06,0 0.39,-1.89 -3.96,0 -3.33,16.14 z" />
        <path
           id="path8136"
           style="font-style:oblique;font-variant:normal;font-weight:bold;font-stretch:normal;font-size:30px;font-family:'Helvetica Neue LT Pro';-inkscape-font-specification:'Helvetica Neue LT Pro Bold Oblique';fill:#d93824;fill-opacity:1;stroke:none"
           d="m 395.3663,580.0692 1.8,0 c 2.16,0 2.76,1.17 2.31,3.3 -0.45,2.19 -1.83,3.21 -3.54,3.21 l -1.92,0 1.35,-6.51 z m -8.1,18.24 4.32,0 1.77,-8.55 2.31,0 c 4.05,0 7.26,-1.98 8.13,-6.45 0.72,-3.21 -0.15,-6.42 -4.53,-6.42 l -7.56,0 -4.44,21.42 z" />
        <path
           id="path8138"
           style="font-style:oblique;font-variant:normal;font-weight:bold;font-stretch:normal;font-size:30px;font-family:'Helvetica Neue LT Pro';-inkscape-font-specification:'Helvetica Neue LT Pro Bold Oblique';fill:#d93824;fill-opacity:1;stroke:none"
           d="m 402.88223,598.3092 4.14,0 4.44,-21.42 -4.14,0 -4.44,21.42 z" />
        <path
           id="path8140"
           style="font-style:oblique;font-variant:normal;font-weight:bold;font-stretch:normal;font-size:30px;font-family:'Helvetica Neue LT Pro';-inkscape-font-specification:'Helvetica Neue LT Pro Bold Oblique';fill:#d93824;fill-opacity:1;stroke:none"
           d="m 418.45927,593.4192 c -0.42,1.8 -1.92,2.49 -3.06,2.49 -1.11,0 -1.35,-1.02 -1.08,-2.25 0.33,-1.44 1.08,-2.25 2.88,-2.61 0.57,-0.12 1.29,-0.36 1.92,-0.81 l -0.66,3.18 z m -2.52,-6.3 0.09,-0.45 c 0.27,-1.29 1.08,-2.1 2.37,-2.1 1.41,0 1.77,0.75 1.5,1.98 -0.21,1.08 -0.75,1.56 -2.04,1.89 l -2.46,0.63 c -3.03,0.81 -4.47,1.98 -5.13,5.04 -0.48,2.16 0.09,4.62 2.94,4.62 1.95,0 3.24,-0.42 4.53,-2.1 l 0.06,0 c 0,0.57 -0.03,1.17 0.18,1.68 l 3.96,0 c -0.24,-0.93 -0.18,-1.62 0.12,-3.12 l 1.77,-8.49 c 0.57,-2.91 0.12,-4.95 -4.83,-4.95 -3.12,0 -5.88,1.26 -6.69,4.98 l -0.09,0.39 3.72,0 z" />
        <path
           id="path8142"
           style="font-style:oblique;font-variant:normal;font-weight:bold;font-stretch:normal;font-size:30px;font-family:'Helvetica Neue LT Pro';-inkscape-font-specification:'Helvetica Neue LT Pro Bold Oblique';fill:#d93824;fill-opacity:1;stroke:none"
           d="m 424.74333,593.0292 -0.12,0.57 c -0.63,3.12 0.21,5.13 4.89,5.13 3.48,0 6.33,-1.68 7.05,-5.07 0.51,-2.43 -0.18,-3.75 -2.61,-4.62 l -2.31,-0.84 c -1.29,-0.45 -1.62,-1.08 -1.41,-1.89 0.24,-1.17 1.26,-1.74 2.31,-1.74 1.35,0 1.65,0.78 1.32,2.43 l 3.72,0 0.12,-0.66 c 0.63,-2.91 -0.81,-4.59 -4.56,-4.59 -4.26,0 -6.36,2.22 -6.93,4.86 -0.48,2.28 0.36,3.69 2.49,4.5 l 2.7,1.05 c 0.75,0.33 1.35,0.78 1.11,1.83 -0.27,1.29 -1.2,1.92 -2.49,1.92 -1.41,0 -1.95,-0.93 -1.68,-2.34 l 0.12,-0.54 -3.72,0 z" />
        <path
           id="path8144"
           style="font-style:oblique;font-variant:normal;font-weight:bold;font-stretch:normal;font-size:30px;font-family:'Helvetica Neue LT Pro';-inkscape-font-specification:'Helvetica Neue LT Pro Bold Oblique';fill:#d93824;fill-opacity:1;stroke:none"
           d="m 441.88411,582.1692 -2.1,0 -0.57,2.82 2.1,0 -1.92,9.24 c -0.72,3.24 -0.3,4.26 2.94,4.26 0.96,0 1.83,-0.09 2.76,-0.18 l 0.57,-2.88 c -0.27,0.03 -0.6,0.06 -0.93,0.06 -1.2,0 -1.35,-0.48 -1.11,-1.77 l 1.83,-8.73 2.4,0 0.57,-2.82 -2.4,0 0.96,-4.62 -4.14,0 -0.96,4.62 z" />
        <path
           id="path8146"
           style="font-style:oblique;font-variant:normal;font-weight:bold;font-stretch:normal;font-size:30px;font-family:'Helvetica Neue LT Pro';-inkscape-font-specification:'Helvetica Neue LT Pro Bold Oblique';fill:#d93824;fill-opacity:1;stroke:none"
           d="m 450.46036,580.1892 4.14,0 0.75,-3.54 -4.14,0 -0.75,3.54 z m -3.75,18.12 4.14,0 3.33,-16.14 -4.14,0 -3.33,16.14 z" />
        <path
           id="path8148"
           style="font-style:oblique;font-variant:normal;font-weight:bold;font-stretch:normal;font-size:30px;font-family:'Helvetica Neue LT Pro';-inkscape-font-specification:'Helvetica Neue LT Pro Bold Oblique';fill:#d93824;fill-opacity:1;stroke:none"
           d="m 467.62739,587.9892 c 0.75,-3.81 -0.69,-6.24 -4.5,-6.24 -3.81,0 -6.96,1.86 -8.31,8.49 -1.35,6.48 0.33,8.49 4.44,8.49 4.41,0 6.63,-2.37 7.5,-6.6 l -3.96,0 c -0.57,2.64 -1.38,3.78 -2.79,3.78 -1.86,0 -1.86,-1.65 -1.05,-5.64 0.81,-3.72 1.44,-5.52 3.51,-5.52 1.56,0 1.53,1.68 1.2,3.24 l 3.96,0 z" />
      </g>
    </g>
  </g>
</svg>
