<?xml version="1.0" encoding="UTF-8" standalone="no"?><!DOCTYPE svg PUBLIC "-//W3C//DTD SVG 1.1//EN" "http://www.w3.org/Graphics/SVG/1.1/DTD/svg11.dtd"><svg width="100%" height="100%" viewBox="0 0 108 108" version="1.1" xmlns="http://www.w3.org/2000/svg" xmlns:xlink="http://www.w3.org/1999/xlink" xml:space="preserve" xmlns:serif="http://www.serif.com/" style="fill-rule:evenodd;clip-rule:evenodd;stroke-linejoin:round;stroke-miterlimit:2;"><path d="M96,0c6.36,0 11.52,5.16 11.52,11.52l0,84.48c0,6.36 -5.16,11.52 -11.52,11.52l-84.48,0c-6.36,0 -11.52,-5.16 -11.52,-11.52l0,-84.48c0,-6.36 5.16,-11.52 11.52,-11.52l84.48,0Zm-47.345,83.407c17.235,0 21.629,-13.819 22.635,-20.897l0,19.547l14.005,0l0,-31.01l-31.91,0l0,6.063l15.205,0c-1.686,7.422 -5.745,14.834 -15.205,14.834c-10.475,0 -17.235,-9.098 -17.235,-20.226c0,-11.128 6.76,-20.226 17.235,-20.226c9.795,0 13.855,7.077 14.19,11.799l15.884,0c-0.344,-8.428 -7.775,-23.262 -29.739,-23.262c-21.285,0 -32.44,14.499 -32.44,32.36c0,17.199 10.14,31.019 27.374,31.019Z" style="fill:#f0f6f0;fill-rule:nonzero;"/></svg>