<?xml version="1.0" encoding="UTF-8" standalone="no"?><!DOCTYPE svg PUBLIC "-//W3C//DTD SVG 1.1//EN" "http://www.w3.org/Graphics/SVG/1.1/DTD/svg11.dtd"><svg width="100%" height="100%" viewBox="0 0 108 108" version="1.1" xmlns="http://www.w3.org/2000/svg" xmlns:xlink="http://www.w3.org/1999/xlink" xml:space="preserve" xmlns:serif="http://www.serif.com/" style="fill-rule:evenodd;clip-rule:evenodd;stroke-linejoin:round;stroke-miterlimit:2;"><path d="M15.36,0c-8.472,0 -15.36,6.888 -15.36,15.36l0,76.8c0,8.472 6.888,15.36 15.36,15.36l76.8,0c8.472,0 15.36,-6.888 15.36,-15.36l0,-76.8c0,-8.472 -6.888,-15.36 -15.36,-15.36l-76.8,0Zm38.4,51.696c3.48,-7.2 12.96,-20.592 21.768,-27.192c6.36,-4.776 16.632,-8.448 16.632,3.288c0,2.352 -1.344,19.704 -2.136,22.512c-2.736,9.792 -12.72,12.288 -21.6,10.776c15.528,2.64 19.488,11.4 10.944,20.16c-16.2,16.632 -23.28,-4.176 -25.104,-9.504l-0.072,-0.216c-0.216,-0.624 -0.336,-0.984 -0.432,-0.984c-0.096,0 -0.216,0.36 -0.432,0.984c-0.024,0.072 -0.048,0.144 -0.072,0.216c-1.824,5.328 -8.904,26.112 -25.104,9.504c-8.52,-8.76 -4.584,-17.52 10.944,-20.16c-8.88,1.512 -18.864,-0.984 -21.6,-10.776c-0.792,-2.808 -2.136,-20.16 -2.136,-22.512c0,-11.736 10.296,-8.04 16.632,-3.288c8.808,6.6 18.288,20.016 21.768,27.192Z" style="fill:#f0f6f0;fill-rule:nonzero;"/></svg>