<?xml version="1.0" encoding="UTF-8" standalone="no"?><!DOCTYPE svg PUBLIC "-//W3C//DTD SVG 1.1//EN" "http://www.w3.org/Graphics/SVG/1.1/DTD/svg11.dtd"><svg width="100%" height="100%" viewBox="0 0 108 108" version="1.1" xmlns="http://www.w3.org/2000/svg" xmlns:xlink="http://www.w3.org/1999/xlink" xml:space="preserve" xmlns:serif="http://www.serif.com/" style="fill-rule:evenodd;clip-rule:evenodd;stroke-linejoin:round;stroke-miterlimit:2;"><path d="M96,0l-84.48,0c-6.36,0 -11.52,5.16 -11.52,11.52l0,84.48c0,6.36 5.16,11.52 11.52,11.52l84.48,0c6.36,0 11.52,-5.16 11.52,-11.52l0,-84.48c0,-6.36 -5.16,-11.52 -11.52,-11.52Zm-61.32,38.4c8.424,0 15.24,6.816 15.24,15.24c0,8.424 -6.816,15.24 -15.24,15.24c-8.424,0 -15.24,-6.816 -15.24,-15.24c0,-8.424 6.816,-15.24 15.24,-15.24Zm38.16,0c8.424,0 15.24,6.816 15.24,15.24c0,8.424 -6.816,15.24 -15.24,15.24c-8.424,0 -15.24,-6.816 -15.24,-15.24c0,-8.424 6.816,-15.24 15.24,-15.24Z" style="fill:#f0f6f0;fill-rule:nonzero;"/></svg>