<?xml version="1.0" encoding="UTF-8" standalone="no"?><!DOCTYPE svg PUBLIC "-//W3C//DTD SVG 1.1//EN" "http://www.w3.org/Graphics/SVG/1.1/DTD/svg11.dtd"><svg width="100%" height="100%" viewBox="0 0 394 394" version="1.1" xmlns="http://www.w3.org/2000/svg" xmlns:xlink="http://www.w3.org/1999/xlink" xml:space="preserve" xmlns:serif="http://www.serif.com/" style="fill-rule:evenodd;clip-rule:evenodd;stroke-linejoin:round;stroke-miterlimit:2;"><rect id="Artboard2" x="-0" y="0" width="393.071" height="393.071" style="fill:#222323;"/><g><path d="M114.671,117.958l8.729,0c-2.068,7.33 -3.175,15.062 -3.175,23.05c0,6.05 0.635,11.954 1.842,17.647l-9.598,0l0,29.035c9.571,3.084 16.504,12.069 16.504,22.661c0,4.139 -3.361,7.5 -7.5,7.5c-4.139,0 -7.5,-3.361 -7.5,-7.5c0,-4.858 -3.944,-8.803 -8.803,-8.803c-4.858,0 -8.803,3.944 -8.803,8.803c0,4.858 3.944,8.803 8.803,8.803c4.139,0 7.5,3.361 7.5,7.5c0,4.139 -3.361,7.5 -7.5,7.5c-13.137,0 -23.803,-10.666 -23.803,-23.803c0,-10.442 6.739,-19.323 16.101,-22.527l0,-34.681c-3.956,-3.713 -6.428,-8.988 -6.428,-14.836c0,-9.595 6.656,-17.648 15.599,-19.79c0.747,-11.664 3.043,-37.744 9.327,-55.955c-3.321,-2.173 -5.178,-6.21 -4.378,-10.344c1.056,-5.455 6.343,-9.027 11.798,-7.971c5.455,1.056 9.027,6.343 7.971,11.798c-0.763,3.94 -3.731,6.897 -7.377,7.838c-6.242,16.938 -8.536,42.072 -9.309,54.076Z" style="fill:#ffc409;"/><path d="M286.669,117.958l12.011,0c11.231,0 20.348,9.118 20.348,20.348c0,5.848 -2.472,11.123 -6.428,14.836l0,34.681c9.362,3.204 16.101,12.085 16.101,22.527c0,13.137 -10.666,23.803 -23.803,23.803c-4.139,0 -7.5,-3.361 -7.5,-7.5c0,-4.139 3.361,-7.5 7.5,-7.5c4.858,0 8.803,-3.944 8.803,-8.803c0,-4.858 -3.944,-8.803 -8.803,-8.803c-4.858,0 -8.803,3.944 -8.803,8.803c0,4.139 -3.361,7.5 -7.5,7.5c-4.139,0 -7.5,-3.361 -7.5,-7.5c0,-10.591 6.933,-19.577 16.504,-22.661l-0,-29.035l-9.598,0c1.207,-5.693 1.842,-11.596 1.842,-17.647c0,-7.988 -1.107,-15.72 -3.175,-23.05Z" style="fill:#ffc409;"/><path d="M131.318,119.378c9.351,-31.875 38.834,-55.179 73.717,-55.179c34.883,0 64.366,23.304 73.717,55.179c2.013,6.862 3.093,14.121 3.093,21.63c0,5.728 -0.628,11.311 -1.82,16.682c-3.306,14.903 -10.946,28.183 -21.528,38.447c-4.769,-1.837 -9.951,-2.843 -15.367,-2.843c-16.855,0 -31.433,9.748 -38.405,23.914c-6.972,-14.166 -21.55,-23.914 -38.405,-23.914c-5.248,0 -10.275,0.945 -14.92,2.674c-10.492,-10.241 -18.066,-23.457 -21.354,-38.278c-1.192,-5.372 -1.82,-10.954 -1.82,-16.682c0,-7.509 1.08,-14.769 3.093,-21.63Zm38.831,15.935c27.27,3.874 50.69,3.828 70.187,-0.071c4.059,-0.812 6.695,-4.766 5.884,-8.825c-0.812,-4.059 -4.766,-6.695 -8.825,-5.884c-18.094,3.618 -39.829,3.524 -65.136,-0.071c-4.098,-0.582 -7.898,2.272 -8.48,6.371c-0.582,4.098 2.272,7.898 6.371,8.48Z" style="fill:#ffc409;"/><path d="M200.619,231.252c-0.315,2.746 -2.639,4.82 -5.404,4.82c-12.498,0.001 -44.447,0.001 -57.737,0.001c-1.618,0 -3.152,-0.72 -4.186,-1.966c-1.034,-1.245 -1.459,-2.886 -1.161,-4.476c1.969,-10.49 8.644,-19.322 17.751,-24.215c2.703,-1.452 5.62,-2.557 8.691,-3.256c2.491,-0.566 5.083,-0.866 7.745,-0.866c12.267,0 23.05,6.351 29.242,15.944c2.581,3.999 4.364,8.561 5.124,13.461c-0.023,0.184 -0.045,0.368 -0.066,0.553Z" style="fill:#ffc409;"/><path d="M208.763,230.699c0.755,-4.867 2.519,-9.401 5.073,-13.381c6.183,-9.637 16.992,-16.023 29.293,-16.023c2.832,0 5.585,0.338 8.22,0.977c3.041,0.737 5.926,1.874 8.596,3.351c8.912,4.932 15.429,13.663 17.367,24.007c0.298,1.589 -0.127,3.229 -1.159,4.474c-1.033,1.245 -2.566,1.965 -4.183,1.965c-13.289,0.004 -45.238,0.004 -57.736,0.004c-2.765,-0 -5.09,-2.074 -5.405,-4.821c-0.02,-0.185 -0.042,-0.369 -0.065,-0.553Z" style="fill:#ffc409;"/><g id="Zebulon-Condensed" serif:id="Zebulon Condensed"><g><path d="M99.219,271.16l-16.529,-19.267l10.331,0l10.331,12.061l10.331,-12.061l10.331,0l-16.529,19.267l0,16.891l-8.265,0l0,-16.891Z" style="fill:#f0f6f0;fill-rule:nonzero;"/><path d="M131.926,273.846l0,1.291c0,3.444 1.377,5.165 4.132,5.165l20.662,0l0,7.748l-20.662,0c-8.265,0 -12.397,-4.305 -12.397,-12.914l0,-10.331c0,-8.609 4.132,-12.914 12.397,-12.914l20.662,0l0,7.748l-20.666,0c-2.752,0 -4.128,1.722 -4.128,5.165l0,1.291l24.794,0l0,7.748l-24.794,0Z" style="fill:#f0f6f0;fill-rule:nonzero;"/><path d="M170.225,275.137c0,3.444 1.377,5.165 4.132,5.165l20.662,0l0,7.748l-20.662,0c-8.265,0 -12.397,-4.305 -12.397,-12.914l0,-23.245l8.265,0l0,23.245Z" style="fill:#f0f6f0;fill-rule:nonzero;"/><path d="M207.995,275.137c0,3.444 1.377,5.165 4.132,5.165l20.662,0l0,7.748l-20.662,0c-8.265,0 -12.397,-4.305 -12.397,-12.914l0,-23.245l8.265,0l0,23.245Z" style="fill:#f0f6f0;fill-rule:nonzero;"/><path d="M237.5,264.806c0,-8.609 4.132,-12.914 12.397,-12.914l12.397,0c8.265,0 12.397,4.305 12.397,12.914l0,12.914c0,6.887 -4.132,10.331 -12.397,10.331l-12.397,0c-8.265,0 -12.397,-4.305 -12.397,-12.914l0,-10.331Zm28.927,0c0,-3.444 -1.377,-5.165 -4.132,-5.165l-12.397,0c-2.755,0 -4.132,1.722 -4.132,5.165l0,10.331c0,3.444 1.377,5.165 4.132,5.165l12.397,0c2.755,0 4.132,-1.722 4.132,-5.165l0,-10.331Z" style="fill:#f0f6f0;fill-rule:nonzero;"/><path d="M304.196,265.168l-4.132,17.718c-0.689,3.444 -2.411,5.165 -5.165,5.165l-4.132,0c-2.755,0 -4.477,-1.722 -5.165,-5.165l-7.232,-30.993l9.298,0l5.165,25.827l4.132,-20.662c0.689,-3.444 2.411,-5.165 5.165,-5.165l4.132,0c2.755,0 4.477,1.722 5.165,5.165l4.132,20.662l5.165,-25.827l9.298,0l-7.232,30.993c-0.689,3.444 -2.411,5.165 -5.165,5.165l-4.132,0c-2.755,0 -4.477,-1.722 -5.165,-5.165l-4.132,-17.718Z" style="fill:#f0f6f0;fill-rule:nonzero;"/></g><g><path d="M116.821,310.269l0,-7.748l24.794,0c8.265,0 12.397,4.305 12.397,12.914l0,12.914c0,6.887 -4.132,10.331 -12.397,10.331l-24.794,0l0,-20.662l8.265,0l0,12.914l16.529,0c2.755,0 4.132,-1.722 4.132,-5.165l0,-10.331c0,-3.444 -1.377,-5.165 -4.132,-5.165l-24.794,0Z" style="fill:#ffc409;fill-rule:nonzero;"/><path d="M185.608,316.726c2.066,0 3.099,-0.861 3.099,-2.583l0,-1.291c0,-1.722 -1.033,-2.583 -3.099,-2.583l-25.827,0l0,-7.748l25.82,0c7.581,0 11.372,3.444 11.372,10.331l0,1.291c0,6.009 -2.875,9.393 -8.626,10.15l18.957,24.717l-10.331,0l-18.854,-24.536l-10.073,0l0,14.205l-8.265,0l0,-21.953l25.827,0Z" style="fill:#ffc409;fill-rule:nonzero;"/><path d="M202.741,315.435c0,-8.609 4.132,-12.914 12.397,-12.914l12.397,0c8.265,0 12.397,4.305 12.397,12.914l0,12.914c0,6.887 -4.132,10.331 -12.397,10.331l-12.397,0c-8.265,0 -12.397,-4.305 -12.397,-12.914l0,-10.331Zm28.927,0c0,-3.444 -1.377,-5.165 -4.132,-5.165l-12.397,0c-2.755,0 -4.132,1.722 -4.132,5.165l0,10.331c0,3.444 1.377,5.165 4.132,5.165l12.397,0c2.755,0 4.132,-1.722 4.132,-5.165l0,-10.331Z" style="fill:#ffc409;fill-rule:nonzero;"/><rect x="245.701" y="302.521" width="8.265" height="36.158" style="fill:#ffc409;fill-rule:nonzero;"/><path d="M259.735,310.269l0,-7.748l24.794,0c8.265,0 12.397,4.305 12.397,12.914l0,12.914c0,6.887 -4.132,10.331 -12.397,10.331l-24.794,0l0,-20.662l8.265,0l0,12.914l16.529,0c2.755,0 4.132,-1.722 4.132,-5.165l0,-10.331c0,-3.444 -1.377,-5.165 -4.132,-5.165l-24.794,0Z" style="fill:#ffc409;fill-rule:nonzero;"/></g></g></g></svg>